GRFwalking.mot
version=1
nRows=17
nColumns=37
inDegrees=yes
endheader
time	ground_force_calcn_l_vx	ground_force_calcn_l_vy	ground_force_calcn_l_vz	ground_force_calcn_l_px	ground_force_calcn_l_py	ground_force_calcn_l_pz	ground_torque_calcn_l_vx	ground_torque_calcn_l_vy	ground_torque_calcn_l_vz	ground_force_calcn_r_vx	ground_force_calcn_r_vy	ground_force_calcn_r_vz	ground_force_calcn_r_px	ground_force_calcn_r_py	ground_force_calcn_r_pz	ground_torque_calcn_r_vx	ground_torque_calcn_r_vy	ground_torque_calcn_r_vz	ground_force_hand_l_vx	ground_force_hand_l_vy	ground_force_hand_l_vz	ground_force_hand_l_px	ground_force_hand_l_py	ground_force_hand_l_pz	ground_torque_hand_l_vx	ground_torque_hand_l_vy	ground_torque_hand_l_vz	ground_force_hand_r_vx	ground_force_hand_r_vy	ground_force_hand_r_vz	ground_force_hand_r_px	ground_force_hand_r_py	ground_force_hand_r_pz	ground_torque_hand_r_vx	ground_torque_hand_r_vy	ground_torque_hand_r_vz
2.399979             0             0             0             0             0             0             0             0             0      77.39823      874.9226     -46.86738     0.1286044 -6.938894e-18    -0.1727701             0     -1.779248             0             0             0             0     0.2246277     0.7598586    -0.5404245             0             0             0             0             0             0     0.4847451     0.7741707   -0.00343739             0             0             0
2.416645             0             0             0             0             0             0             0             0             0      79.98089      845.1474     -46.86078     0.1262071 -6.938894e-18    -0.1702845             0      -2.37194             0             0             0             0     0.2275357     0.7568874    -0.5439306             0             0             0             0             0             0     0.5043602     0.7752163   -0.00698024             0             0             0
2.433312             0             0             0             0             0             0             0             0             0      84.40276       782.709     -48.54751     0.1268157 -6.938894e-18    -0.1695238             0     -2.459456             0             0             0             0     0.2307098     0.7539955    -0.5470761             0             0             0             0             0             0     0.5236272     0.7762624   -0.01026406             0             0             0
2.449978     -19.52911      161.6385      15.66211      0.517987 -3.122502e-17    -0.3825953             0    -0.9787877             0      89.34136      703.8475     -51.42623     0.1325422 -8.673617e-18    -0.1685758             0     -2.126242             0             0             0             0     0.2343221     0.7522756    -0.5497834             0             0             0             0             0             0      0.542239     0.7783222   -0.01326174             0             0             0
2.466645     -28.39441      232.4706      23.73706     0.5262447 -3.122502e-17    -0.3815898             0     -1.409927             0      93.16407      633.1823     -54.08757     0.1420437 -8.673617e-18    -0.1660543             0     -1.606633             0             0             0             0     0.2385709     0.7524128    -0.5521544             0             0             0             0             0             0     0.5597986     0.7820119   -0.01617082             0             0             0
2.483312     -35.68388      277.6126      30.15479     0.5329838 -3.122502e-17     -0.380648             0     -1.655789             0      95.01132      588.7177     -55.09309     0.1559349 -1.040834e-17    -0.1627464             0     -1.180591             0             0             0             0     0.2436785     0.7541215    -0.5544465             0             0             0             0             0             0     0.5760057     0.7869139   -0.01931173             0             0             0
2.499978     -41.45587      295.3363      34.34739     0.5406331 -3.469447e-17    -0.3805958             0     -1.643019             0      95.21978       571.503       -53.798     0.1689816 -1.040834e-17    -0.1628248             0    -0.9770508             0             0             0             0     0.2498308     0.7563173    -0.5569174             0             0             0             0             0             0     0.5907244     0.7917642   -0.02294187             0             0             0
2.516645      -46.6686      298.4825      36.97361     0.6179909 -3.816392e-17    -0.3871661             0     -1.400711             0      94.90239      567.7783     -50.47208     0.1894368 -1.040834e-17    -0.1707239             0    -0.9593806             0             0             0             0     0.2571629     0.7578658    -0.5596497             0             0             0             0             0             0     0.6039064     0.7953043   -0.02710236             0             0             0
2.533311     -52.47318      303.1998      39.29521     0.6396119 -3.989864e-17    -0.3909705             0     -1.075263             0       95.3772      560.7244     -45.81863     0.2008178 -1.387779e-17    -0.1766254             0      -1.01903             0             0             0             0     0.2658783     0.7582677    -0.5625113             0             0             0             0             0             0      0.615541     0.7970633   -0.03160903             0             0             0
2.549978     -59.83634       318.007      42.42626     0.6452751 -3.989864e-17      -0.39408             0    -0.9082361             0      97.86049      541.7125     -40.44938     0.2028075 -1.387779e-17    -0.1788935             0      -1.07599             0             0             0             0     0.2763725     0.7578019    -0.5653001             0             0             0             0             0             0     0.6257048     0.7974937   -0.03618839             0             0             0
2.566645     -69.16536      341.6058      46.83509     0.6497188 -3.989864e-17    -0.3969548             0     -1.127224             0      102.9802      512.5932     -34.69965     0.2026113 -1.214306e-17    -0.1815157             0     -1.113733             0             0             0             0     0.2891066     0.7571652    -0.5679258             0             0             0             0             0             0     0.6345451     0.7974935   -0.04062528             0             0             0
2.583311     -79.47547       369.795      52.16949     0.6540542 -3.989864e-17    -0.3991863             0     -1.736828             0      109.6845      478.5488     -28.74131     0.2018066 -1.214306e-17     -0.184346             0     -1.147423             0             0             0             0     0.3042227     0.7569877    -0.5704335             0             0             0             0             0             0     0.6421083     0.7977876   -0.04479817             0             0             0
2.599978     -87.59402      404.1269      57.39728     0.6589582   -4.0766e-17    -0.4003748             0     -2.321134             0      114.2476      438.8312     -22.73532     0.2012047 -1.214306e-17    -0.1855756             0     -1.172132             0             0             0             0     0.3212661     0.7575338    -0.5728782             0             0             0             0             0             0     0.6481998     0.7985934   -0.04861788             0             0             0
2.616644     -88.72891      453.4985      61.30649     0.6641992   -4.0766e-17    -0.4006377             0     -2.075364             0      110.9764      384.4988     -16.87744     0.2005925 -1.214306e-17    -0.1852144             0     -1.142051             0             0             0             0     0.3393555     0.7586662    -0.5752243             0             0             0             0             0             0     0.6524831     0.7996593   -0.05197972             0             0             0
2.633311     -79.09723      525.9635      63.28635     0.6682915   -4.0766e-17    -0.4000897             0    -0.2071697             0      95.40288      306.4455      -11.3996     0.1999472 -1.214306e-17    -0.1822031             0     -1.000622             0             0             0             0      0.357714     0.7599905    -0.5773714             0             0             0             0             0             0     0.6547695     0.8005177   -0.05478902             0             0             0
2.649977     -59.22216      617.4747      63.94943     0.6693403   -4.0766e-17    -0.3988939             0      3.459829             0      68.24004      207.3373     -6.608037     0.1995366 -1.387779e-17    -0.1816647             0    -0.7360584             0             0             0             0     0.3761281     0.7610688    -0.5792554             0             0             0             0             0             0     0.6552442     0.8007598   -0.05701457             0             0             0
2.666644     -34.89708       708.966      64.95239     0.6688294 -4.163336e-17    -0.3975014             0      8.143833             0             0             0             0             0             0             0             0             0             0             0             0             0     0.3949892     0.7616139    -0.5808986             0             0             0             0             0             0     0.6544386     0.8002135   -0.05869504             0             0             0
